# xmcd CD database file
#
# Track frame offsets:
#	150
#	14587
#	27887
#	43437
#	58135
#	70027
#	84982
#	101232
#	115015
#	128112
#	138965
#	151442
#	165487
#	180942
#	199465
#
# Disc length: 2848 seconds
#
# Revision: 0
# Processed by: cddbd v1.5.2PL0 Copyright (c) Steve Scherf et al.
# Submitted via: CDex 1.70beta2
#
DISCID=cc0b1e0f
DTITLE=Johnny Zell - Trumpet! Trumpet! Trumpet!
DYEAR=1994
DGENRE=Jazz
TTITLE0=You Made Me Love You
TTITLE1=Lullaby of Birdland
TTITLE2=The Very Thought of You
TTITLE3=Sentimental Journey
TTITLE4=The Sheik of Araby
TTITLE5=It's All in the Game
TTITLE6=I Cant Get Started With You
TTITLE7=Begin the Beguine
TTITLE8=It's Been a Long Long Time
TTITLE9=Sugar Blues
TTITLE10=Mack the Knife
TTITLE11=Twilight Time
TTITLE12=The St. Louis Blues
TTITLE13=Mean to Me
TTITLE14=In the Mood
EXTD=YEAR: 1994
EXTT0=
EXTT1=
EXTT2=
EXTT3=
EXTT4=
EXTT5=
EXTT6=
EXTT7=
EXTT8=
EXTT9=
EXTT10=
EXTT11=
EXTT12=
EXTT13=
EXTT14=
PLAYORDER=
